<mxfile host="app.diagrams.net" modified="2024-01-21T10:56:53.222Z" agent="Mozilla/5.0 (Windows NT 10.0; Win64; x64) AppleWebKit/537.36 (KHTML, like Gecko) Chrome/120.0.0.0 Safari/537.36" etag="MOy7QtmYcaQyhoNYSTP6" version="22.1.21" type="github">
  <diagram id="C5RBs43oDa-KdzZeNtuy" name="Page-1">
    <mxGraphModel dx="2577" dy="883" grid="1" gridSize="10" guides="1" tooltips="1" connect="1" arrows="1" fold="1" page="1" pageScale="1" pageWidth="827" pageHeight="1169" math="0" shadow="0">
      <root>
        <mxCell id="WIyWlLk6GJQsqaUBKTNV-0" />
        <mxCell id="WIyWlLk6GJQsqaUBKTNV-1" parent="WIyWlLk6GJQsqaUBKTNV-0" />
        <mxCell id="RrQXYz5zGmn54PQTab61-1" value="" style="endArrow=classic;html=1;rounded=0;exitX=0.5;exitY=1;exitDx=0;exitDy=0;" edge="1" parent="WIyWlLk6GJQsqaUBKTNV-1">
          <mxGeometry width="50" height="50" relative="1" as="geometry">
            <mxPoint x="80" y="510" as="sourcePoint" />
            <mxPoint x="80" y="610" as="targetPoint" />
          </mxGeometry>
        </mxCell>
        <mxCell id="RrQXYz5zGmn54PQTab61-2" value="&lt;h1&gt;Start&lt;/h1&gt;" style="rounded=1;whiteSpace=wrap;html=1;fillColor=#CC6600;fontColor=#000000;strokeColor=#C73500;glass=0;gradientColor=none;" vertex="1" parent="WIyWlLk6GJQsqaUBKTNV-1">
          <mxGeometry x="30" y="460" width="100" height="50" as="geometry" />
        </mxCell>
        <mxCell id="RrQXYz5zGmn54PQTab61-3" value="&lt;h1&gt;Salomlashish va shartlar&lt;/h1&gt;" style="rounded=1;whiteSpace=wrap;html=1;fillColor=#CC6600;fontColor=#000000;strokeColor=#C73500;glass=0;gradientColor=none;" vertex="1" parent="WIyWlLk6GJQsqaUBKTNV-1">
          <mxGeometry x="-20" y="610" width="200" height="100" as="geometry" />
        </mxCell>
        <mxCell id="RrQXYz5zGmn54PQTab61-4" value="" style="endArrow=classic;html=1;rounded=0;exitX=0.5;exitY=1;exitDx=0;exitDy=0;" edge="1" parent="WIyWlLk6GJQsqaUBKTNV-1">
          <mxGeometry width="50" height="50" relative="1" as="geometry">
            <mxPoint x="79.41000000000003" y="710" as="sourcePoint" />
            <mxPoint x="79.41000000000003" y="810" as="targetPoint" />
          </mxGeometry>
        </mxCell>
        <mxCell id="RrQXYz5zGmn54PQTab61-5" value="&lt;h1&gt;boshlang&#39;ich qiymatlar va rasmalrni va randomni import qilish&lt;/h1&gt;" style="rounded=1;whiteSpace=wrap;html=1;fillColor=#CC6600;fontColor=#000000;strokeColor=#C73500;glass=0;gradientColor=none;" vertex="1" parent="WIyWlLk6GJQsqaUBKTNV-1">
          <mxGeometry x="-70" y="810" width="300" height="150" as="geometry" />
        </mxCell>
        <mxCell id="RrQXYz5zGmn54PQTab61-7" value="" style="endArrow=classic;html=1;rounded=0;exitX=0.5;exitY=1;exitDx=0;exitDy=0;entryX=0.5;entryY=0;entryDx=0;entryDy=0;" edge="1" parent="WIyWlLk6GJQsqaUBKTNV-1" source="RrQXYz5zGmn54PQTab61-5" target="RrQXYz5zGmn54PQTab61-8">
          <mxGeometry width="50" height="50" relative="1" as="geometry">
            <mxPoint x="79.17000000000002" y="970" as="sourcePoint" />
            <mxPoint x="79.17000000000002" y="1070" as="targetPoint" />
          </mxGeometry>
        </mxCell>
        <mxCell id="RrQXYz5zGmn54PQTab61-8" value="&lt;h1&gt;foydalanuvchidan malumot olish va elmentni random qilish&lt;/h1&gt;" style="rounded=1;whiteSpace=wrap;html=1;fillColor=#CC6600;fontColor=#000000;strokeColor=#C73500;glass=0;gradientColor=none;" vertex="1" parent="WIyWlLk6GJQsqaUBKTNV-1">
          <mxGeometry x="-70" y="1090" width="300" height="150" as="geometry" />
        </mxCell>
        <mxCell id="RrQXYz5zGmn54PQTab61-9" value="&lt;h1&gt;Foydalanuchi kiritgan element random elementdan kuchilroqmi&lt;/h1&gt;" style="rhombus;whiteSpace=wrap;html=1;fillColor=#d47d25;" vertex="1" parent="WIyWlLk6GJQsqaUBKTNV-1">
          <mxGeometry x="-70" y="1370" width="300" height="300" as="geometry" />
        </mxCell>
        <mxCell id="RrQXYz5zGmn54PQTab61-10" value="" style="endArrow=classic;html=1;rounded=0;exitX=0.5;exitY=1;exitDx=0;exitDy=0;entryX=0.5;entryY=0;entryDx=0;entryDy=0;" edge="1" parent="WIyWlLk6GJQsqaUBKTNV-1">
          <mxGeometry width="50" height="50" relative="1" as="geometry">
            <mxPoint x="79.72000000000003" y="1240" as="sourcePoint" />
            <mxPoint x="79.72000000000003" y="1370" as="targetPoint" />
          </mxGeometry>
        </mxCell>
        <mxCell id="RrQXYz5zGmn54PQTab61-14" value="&lt;h1&gt;Foydalanuvchining yuragi tugadimi&lt;/h1&gt;" style="rhombus;whiteSpace=wrap;html=1;fillColor=#d47d25;" vertex="1" parent="WIyWlLk6GJQsqaUBKTNV-1">
          <mxGeometry x="120" y="2130" width="300" height="300" as="geometry" />
        </mxCell>
        <mxCell id="RrQXYz5zGmn54PQTab61-15" value="&lt;h1&gt;Compyuterning yuragi tugadimi&lt;/h1&gt;" style="rhombus;whiteSpace=wrap;html=1;fillColor=#d47d25;" vertex="1" parent="WIyWlLk6GJQsqaUBKTNV-1">
          <mxGeometry x="-260" y="2130" width="300" height="300" as="geometry" />
        </mxCell>
        <mxCell id="RrQXYz5zGmn54PQTab61-16" value="&lt;h1&gt;Foydalanuvhi -1&lt;/h1&gt;" style="rounded=1;whiteSpace=wrap;html=1;fillColor=#CC6600;fontColor=#000000;strokeColor=#C73500;glass=0;gradientColor=none;" vertex="1" parent="WIyWlLk6GJQsqaUBKTNV-1">
          <mxGeometry x="120" y="1770" width="300" height="150" as="geometry" />
        </mxCell>
        <mxCell id="RrQXYz5zGmn54PQTab61-17" value="&lt;h1&gt;Compyuter -1&lt;/h1&gt;" style="rounded=1;whiteSpace=wrap;html=1;fillColor=#CC6600;fontColor=#000000;strokeColor=#C73500;glass=0;gradientColor=none;" vertex="1" parent="WIyWlLk6GJQsqaUBKTNV-1">
          <mxGeometry x="-260" y="1770" width="300" height="150" as="geometry" />
        </mxCell>
        <mxCell id="RrQXYz5zGmn54PQTab61-20" value="&lt;h1&gt;Shu yutdi&lt;/h1&gt;" style="rounded=1;whiteSpace=wrap;html=1;fillColor=#CC6600;fontColor=#000000;strokeColor=#C73500;glass=0;gradientColor=none;" vertex="1" parent="WIyWlLk6GJQsqaUBKTNV-1">
          <mxGeometry x="-70" y="2610" width="300" height="150" as="geometry" />
        </mxCell>
        <mxCell id="RrQXYz5zGmn54PQTab61-21" value="&lt;h1&gt;O&#39;yin tugadi&lt;/h1&gt;" style="rounded=1;whiteSpace=wrap;html=1;fillColor=#CC6600;fontColor=#000000;strokeColor=#C73500;glass=0;gradientColor=none;" vertex="1" parent="WIyWlLk6GJQsqaUBKTNV-1">
          <mxGeometry x="-70" y="2970" width="300" height="150" as="geometry" />
        </mxCell>
        <mxCell id="RrQXYz5zGmn54PQTab61-24" value="" style="endArrow=classic;html=1;rounded=0;exitX=0;exitY=1;exitDx=0;exitDy=0;" edge="1" parent="WIyWlLk6GJQsqaUBKTNV-1" source="RrQXYz5zGmn54PQTab61-9">
          <mxGeometry width="50" height="50" relative="1" as="geometry">
            <mxPoint x="-180" y="1610" as="sourcePoint" />
            <mxPoint x="-120" y="1770" as="targetPoint" />
          </mxGeometry>
        </mxCell>
        <mxCell id="RrQXYz5zGmn54PQTab61-25" value="" style="endArrow=classic;html=1;rounded=0;exitX=1;exitY=1;exitDx=0;exitDy=0;" edge="1" parent="WIyWlLk6GJQsqaUBKTNV-1" source="RrQXYz5zGmn54PQTab61-9">
          <mxGeometry width="50" height="50" relative="1" as="geometry">
            <mxPoint x="-60" y="1800" as="sourcePoint" />
            <mxPoint x="280" y="1770" as="targetPoint" />
          </mxGeometry>
        </mxCell>
        <mxCell id="RrQXYz5zGmn54PQTab61-26" value="" style="endArrow=classic;html=1;rounded=0;entryX=0.5;entryY=0;entryDx=0;entryDy=0;exitX=0.5;exitY=1;exitDx=0;exitDy=0;" edge="1" parent="WIyWlLk6GJQsqaUBKTNV-1" source="RrQXYz5zGmn54PQTab61-17" target="RrQXYz5zGmn54PQTab61-15">
          <mxGeometry width="50" height="50" relative="1" as="geometry">
            <mxPoint x="-110" y="2010" as="sourcePoint" />
            <mxPoint x="-60" y="1960" as="targetPoint" />
          </mxGeometry>
        </mxCell>
        <mxCell id="RrQXYz5zGmn54PQTab61-27" value="" style="endArrow=classic;html=1;rounded=0;entryX=0.5;entryY=0;entryDx=0;entryDy=0;exitX=0.5;exitY=1;exitDx=0;exitDy=0;" edge="1" parent="WIyWlLk6GJQsqaUBKTNV-1">
          <mxGeometry width="50" height="50" relative="1" as="geometry">
            <mxPoint x="269" y="1920" as="sourcePoint" />
            <mxPoint x="269" y="2130" as="targetPoint" />
          </mxGeometry>
        </mxCell>
        <mxCell id="RrQXYz5zGmn54PQTab61-28" value="" style="endArrow=classic;html=1;rounded=0;entryX=0.5;entryY=0;entryDx=0;entryDy=0;exitX=1;exitY=1;exitDx=0;exitDy=0;" edge="1" parent="WIyWlLk6GJQsqaUBKTNV-1" source="RrQXYz5zGmn54PQTab61-15" target="RrQXYz5zGmn54PQTab61-20">
          <mxGeometry width="50" height="50" relative="1" as="geometry">
            <mxPoint x="-50" y="2510" as="sourcePoint" />
            <mxPoint y="2460" as="targetPoint" />
          </mxGeometry>
        </mxCell>
        <mxCell id="RrQXYz5zGmn54PQTab61-30" value="" style="endArrow=classic;html=1;rounded=0;entryX=0.5;entryY=0;entryDx=0;entryDy=0;exitX=0;exitY=1;exitDx=0;exitDy=0;" edge="1" parent="WIyWlLk6GJQsqaUBKTNV-1" source="RrQXYz5zGmn54PQTab61-14" target="RrQXYz5zGmn54PQTab61-20">
          <mxGeometry width="50" height="50" relative="1" as="geometry">
            <mxPoint x="100" y="2500" as="sourcePoint" />
            <mxPoint x="150" y="2450" as="targetPoint" />
          </mxGeometry>
        </mxCell>
        <mxCell id="RrQXYz5zGmn54PQTab61-31" value="" style="endArrow=classic;html=1;rounded=0;entryX=0.5;entryY=0;entryDx=0;entryDy=0;exitX=0.5;exitY=1;exitDx=0;exitDy=0;" edge="1" parent="WIyWlLk6GJQsqaUBKTNV-1" source="RrQXYz5zGmn54PQTab61-20" target="RrQXYz5zGmn54PQTab61-21">
          <mxGeometry width="50" height="50" relative="1" as="geometry">
            <mxPoint x="70" y="2890" as="sourcePoint" />
            <mxPoint x="120" y="2840" as="targetPoint" />
          </mxGeometry>
        </mxCell>
        <mxCell id="RrQXYz5zGmn54PQTab61-34" value="" style="endArrow=classic;html=1;rounded=0;entryX=0;entryY=0.5;entryDx=0;entryDy=0;exitX=0;exitY=0.5;exitDx=0;exitDy=0;" edge="1" parent="WIyWlLk6GJQsqaUBKTNV-1" source="RrQXYz5zGmn54PQTab61-15" target="RrQXYz5zGmn54PQTab61-9">
          <mxGeometry width="50" height="50" relative="1" as="geometry">
            <mxPoint x="-260" y="2110" as="sourcePoint" />
            <mxPoint x="-210" y="2060" as="targetPoint" />
            <Array as="points">
              <mxPoint x="-320" y="2280" />
              <mxPoint x="-320" y="1520" />
            </Array>
          </mxGeometry>
        </mxCell>
        <mxCell id="RrQXYz5zGmn54PQTab61-35" value="" style="endArrow=classic;html=1;rounded=0;exitX=1;exitY=0.5;exitDx=0;exitDy=0;entryX=1;entryY=0.5;entryDx=0;entryDy=0;" edge="1" parent="WIyWlLk6GJQsqaUBKTNV-1" source="RrQXYz5zGmn54PQTab61-14" target="RrQXYz5zGmn54PQTab61-9">
          <mxGeometry width="50" height="50" relative="1" as="geometry">
            <mxPoint x="94" y="1740" as="sourcePoint" />
            <mxPoint x="464" y="1510" as="targetPoint" />
            <Array as="points">
              <mxPoint x="480" y="2280" />
              <mxPoint x="480" y="1520" />
            </Array>
          </mxGeometry>
        </mxCell>
        <mxCell id="RrQXYz5zGmn54PQTab61-38" value="&lt;h1&gt;Ha&lt;/h1&gt;" style="text;html=1;align=center;verticalAlign=middle;resizable=0;points=[];autosize=1;strokeColor=none;fillColor=none;" vertex="1" parent="WIyWlLk6GJQsqaUBKTNV-1">
          <mxGeometry x="-135" y="1610" width="50" height="70" as="geometry" />
        </mxCell>
        <mxCell id="RrQXYz5zGmn54PQTab61-39" value="&lt;h1&gt;Yo&#39;q&lt;/h1&gt;" style="text;html=1;align=center;verticalAlign=middle;resizable=0;points=[];autosize=1;strokeColor=none;fillColor=none;" vertex="1" parent="WIyWlLk6GJQsqaUBKTNV-1">
          <mxGeometry x="240" y="1610" width="70" height="70" as="geometry" />
        </mxCell>
        <mxCell id="RrQXYz5zGmn54PQTab61-40" value="&lt;h1&gt;Ha&lt;/h1&gt;" style="text;html=1;align=center;verticalAlign=middle;resizable=0;points=[];autosize=1;strokeColor=none;fillColor=none;" vertex="1" parent="WIyWlLk6GJQsqaUBKTNV-1">
          <mxGeometry x="-90" y="2460" width="50" height="70" as="geometry" />
        </mxCell>
        <mxCell id="RrQXYz5zGmn54PQTab61-41" value="&lt;h1&gt;Ha&lt;/h1&gt;" style="text;html=1;align=center;verticalAlign=middle;resizable=0;points=[];autosize=1;strokeColor=none;fillColor=none;" vertex="1" parent="WIyWlLk6GJQsqaUBKTNV-1">
          <mxGeometry x="190" y="2450" width="50" height="70" as="geometry" />
        </mxCell>
        <mxCell id="RrQXYz5zGmn54PQTab61-42" value="&lt;h1&gt;Yo&#39;q&lt;/h1&gt;" style="text;html=1;align=center;verticalAlign=middle;resizable=0;points=[];autosize=1;strokeColor=none;fillColor=none;" vertex="1" parent="WIyWlLk6GJQsqaUBKTNV-1">
          <mxGeometry x="520" y="2170" width="70" height="70" as="geometry" />
        </mxCell>
        <mxCell id="RrQXYz5zGmn54PQTab61-43" value="&lt;h1&gt;Yo&#39;q&lt;/h1&gt;" style="text;html=1;align=center;verticalAlign=middle;resizable=0;points=[];autosize=1;strokeColor=none;fillColor=none;" vertex="1" parent="WIyWlLk6GJQsqaUBKTNV-1">
          <mxGeometry x="-430" y="2170" width="70" height="70" as="geometry" />
        </mxCell>
      </root>
    </mxGraphModel>
  </diagram>
</mxfile>
